<svg id="Capa_1" enable-background="new 0 0 512.027 512.027" height="512" viewBox="0 0 512.027 512.027" width="512" xmlns="http://www.w3.org/2000/svg"><path d="m487.745 24.304c-15.672-15.673-36.508-24.304-58.673-24.304-22.164 0-43.001 8.632-58.671 24.304l-66.659 66.656-23.315-23.314c-2.813-2.813-6.628-4.394-10.605-4.394-3.978 0-7.794 1.582-10.607 4.394l-54.654 54.658c-5.857 5.858-5.857 15.355 0 21.213l23.313 23.313-156.087 156.083c-15.007 15.007-23.643 35.217-24.255 56.301l-29.875 29.876c-23.516 23.517-23.516 61.781 0 85.301 11.759 11.758 27.204 17.637 42.649 17.637s30.891-5.879 42.65-17.637l29.877-29.876c21.084-.609 41.292-9.246 56.3-24.258l156.083-156.083 23.313 23.314c2.814 2.814 6.629 4.394 10.607 4.394 3.979 0 7.794-1.581 10.608-4.394l54.656-54.66c5.857-5.858 5.857-15.355-.002-21.213l-23.31-23.311 66.657-66.656c32.35-32.354 32.35-84.995 0-117.344zm-319.826 394.741c-10.631 10.633-25.344 16.265-40.402 15.423-4.275-.222-8.418 1.355-11.435 4.371l-34.339 34.338c-11.821 11.821-31.054 11.819-42.873.002-11.819-11.822-11.82-31.056-.001-42.876l34.338-34.337c3.017-3.016 4.604-7.173 4.37-11.433-.83-15.048 4.792-29.776 15.423-40.406l156.085-156.084 26.852 26.851-119.351 119.356c-5.858 5.857-5.858 15.354 0 21.212 2.929 2.93 6.768 4.394 10.607 4.394s7.678-1.465 10.606-4.394l119.351-119.356 26.854 26.855zm211.217-143.377-142.756-142.758 33.441-33.444 142.758 142.755zm87.396-155.233-66.656 66.656-74.919-74.918 66.658-66.657c10.003-10.005 23.306-15.516 37.457-15.516s27.454 5.511 37.46 15.517c20.654 20.654 20.654 54.261 0 74.918z"/></svg>